<svg xmlns="http://www.w3.org/2000/svg" xmlns:xlink="http://www.w3.org/1999/xlink" width="500" zoomAndPan="magnify" viewBox="0 0 375 374.999991" height="500" preserveAspectRatio="xMidYMid meet" version="1.0"><defs><filter x="0%" y="0%" width="100%" height="100%" id="0070649095"><feColorMatrix values="0 0 0 0 1 0 0 0 0 1 0 0 0 0 1 0 0 0 1 0" color-interpolation-filters="sRGB"/></filter><g/><clipPath id="c972cdc0f2"><path d="M 25.484375 0 L 349.484375 0 L 349.484375 375 L 25.484375 375 Z M 25.484375 0 " clip-rule="nonzero"/></clipPath><clipPath id="68b6749911"><path d="M 176 203 L 201 203 L 201 211.398438 L 176 211.398438 Z M 176 203 " clip-rule="nonzero"/></clipPath><mask id="d74e57bdab"><g filter="url(#0070649095)"><rect x="-37.5" width="450" fill="#000000" y="-37.499999" height="449.999989" fill-opacity="0.25"/></g></mask><clipPath id="5da701b10c"><path d="M 7 0.0390625 L 33 0.0390625 L 33 10 L 7 10 Z M 7 0.0390625 " clip-rule="nonzero"/></clipPath><clipPath id="f9a0bfd0a6"><path d="M 0.199219 49 L 49.878906 49 L 49.878906 101.558594 L 0.199219 101.558594 Z M 0.199219 49 " clip-rule="nonzero"/></clipPath><clipPath id="20964c0363"><rect x="0" width="50" y="0" height="102"/></clipPath><clipPath id="b56b647e07"><path d="M 115.566406 109 L 133 109 L 133 115 L 115.566406 115 Z M 115.566406 109 " clip-rule="nonzero"/></clipPath><clipPath id="5a42fc1233"><path d="M 175 45.648438 L 182 45.648438 L 182 63 L 175 63 Z M 175 45.648438 " clip-rule="nonzero"/></clipPath><clipPath id="a6b91a08d9"><path d="M 242 109 L 259.566406 109 L 259.566406 115 L 242 115 Z M 242 109 " clip-rule="nonzero"/></clipPath><clipPath id="6167db51f2"><path d="M 193 45.648438 L 199 45.648438 L 199 63 L 193 63 Z M 193 45.648438 " clip-rule="nonzero"/></clipPath></defs><g clip-path="url(#c972cdc0f2)"><path fill="#004aad" d="M 187.496094 374.585938 L 25.484375 281.050781 L 25.484375 93.949219 L 187.496094 0.414062 L 349.507812 93.949219 L 349.507812 281.050781 Z M 34.578125 275.777344 L 187.496094 364.078125 L 340.417969 275.777344 L 340.417969 99.222656 L 187.679688 10.921875 L 34.578125 99.222656 Z M 34.578125 275.777344 " fill-opacity="1" fill-rule="nonzero"/></g><g fill="#ffbd59" fill-opacity="1"><g transform="translate(94.521737, 281.917425)"><g><path d="M 29.265625 -16.734375 L 13.25 -16.734375 C 12.570312 -15.097656 11.992188 -13.648438 11.515625 -12.390625 C 11.035156 -11.128906 10.644531 -10.035156 10.34375 -9.109375 C 10.039062 -8.191406 9.828125 -7.410156 9.703125 -6.765625 C 9.585938 -6.128906 9.53125 -5.613281 9.53125 -5.21875 C 9.53125 -4.101562 9.890625 -3.332031 10.609375 -2.90625 C 11.335938 -2.488281 12.539062 -2.28125 14.21875 -2.28125 L 14.21875 0 L -0.359375 0 L -0.359375 -2.28125 C 0.554688 -2.394531 1.34375 -2.550781 2 -2.75 C 2.664062 -2.957031 3.25 -3.238281 3.75 -3.59375 C 4.25 -3.957031 4.6875 -4.425781 5.0625 -5 C 5.445312 -5.582031 5.816406 -6.296875 6.171875 -7.140625 L 21.78125 -46.1875 L 24.359375 -46.1875 L 37.96875 -12.359375 C 38.882812 -10.117188 39.679688 -8.328125 40.359375 -6.984375 C 41.046875 -5.648438 41.707031 -4.640625 42.34375 -3.953125 C 42.988281 -3.273438 43.679688 -2.835938 44.421875 -2.640625 C 45.160156 -2.441406 46.050781 -2.34375 47.09375 -2.34375 L 47.09375 0 L 27.53125 0 L 27.53125 -2.34375 C 29.65625 -2.34375 31.113281 -2.539062 31.90625 -2.9375 C 32.707031 -3.34375 33.109375 -4.003906 33.109375 -4.921875 C 33.109375 -5.316406 33.085938 -5.679688 33.046875 -6.015625 C 33.003906 -6.359375 32.929688 -6.726562 32.828125 -7.125 C 32.734375 -7.53125 32.597656 -7.984375 32.421875 -8.484375 C 32.242188 -8.984375 32.015625 -9.570312 31.734375 -10.25 Z M 14.453125 -19.734375 L 28.125 -19.734375 L 21.46875 -37.4375 Z M 14.453125 -19.734375 "/></g></g></g><path stroke-linecap="butt" transform="matrix(0, -0.75, 0.75, 0, 185.621784, 300.376826)" fill="none" stroke-linejoin="miter" d="M 0.0024345 2.49908 L 98.945149 2.49908 " stroke="#ffbd59" stroke-width="5" stroke-opacity="1" stroke-miterlimit="4"/><g fill="#ffbd59" fill-opacity="1"><g transform="translate(234.880227, 285.380036)"><g><path d="M 3.484375 -14.09375 L 5.703125 -14.09375 C 5.984375 -12.300781 6.507812 -10.679688 7.28125 -9.234375 C 8.0625 -7.796875 9.039062 -6.578125 10.21875 -5.578125 C 11.40625 -4.578125 12.769531 -3.804688 14.3125 -3.265625 C 15.851562 -2.722656 17.519531 -2.453125 19.3125 -2.453125 C 22.28125 -2.453125 24.625 -3.148438 26.34375 -4.546875 C 28.0625 -5.953125 28.921875 -7.859375 28.921875 -10.265625 C 28.921875 -11.265625 28.75 -12.179688 28.40625 -13.015625 C 28.070312 -13.859375 27.503906 -14.671875 26.703125 -15.453125 C 25.898438 -16.234375 24.828125 -17.003906 23.484375 -17.765625 C 22.148438 -18.523438 20.460938 -19.34375 18.421875 -20.21875 C 15.941406 -21.300781 13.859375 -22.34375 12.171875 -23.34375 C 10.492188 -24.34375 9.15625 -25.378906 8.15625 -26.453125 C 7.15625 -27.535156 6.445312 -28.6875 6.03125 -29.90625 C 5.613281 -31.125 5.40625 -32.515625 5.40625 -34.078125 C 5.40625 -35.921875 5.734375 -37.617188 6.390625 -39.171875 C 7.046875 -40.734375 7.972656 -42.082031 9.171875 -43.21875 C 10.378906 -44.363281 11.800781 -45.242188 13.4375 -45.859375 C 15.082031 -46.484375 16.882812 -46.796875 18.84375 -46.796875 C 20.601562 -46.796875 22.242188 -46.515625 23.765625 -45.953125 C 25.285156 -45.398438 26.820312 -44.503906 28.375 -43.265625 L 29.9375 -45.953125 L 31.3125 -45.953125 L 31.984375 -34.015625 L 29.765625 -34.015625 C 28.796875 -37.296875 27.398438 -39.734375 25.578125 -41.328125 C 23.765625 -42.929688 21.578125 -43.734375 19.015625 -43.734375 C 16.578125 -43.734375 14.640625 -43.132812 13.203125 -41.9375 C 11.765625 -40.738281 11.046875 -39.117188 11.046875 -37.078125 C 11.046875 -36.117188 11.203125 -35.25 11.515625 -34.46875 C 11.835938 -33.6875 12.359375 -32.945312 13.078125 -32.25 C 13.796875 -31.550781 14.734375 -30.847656 15.890625 -30.140625 C 17.054688 -29.441406 18.5 -28.710938 20.21875 -27.953125 C 23.175781 -26.640625 25.632812 -25.410156 27.59375 -24.265625 C 29.5625 -23.128906 31.125 -21.988281 32.28125 -20.84375 C 33.4375 -19.707031 34.253906 -18.507812 34.734375 -17.25 C 35.210938 -15.988281 35.453125 -14.578125 35.453125 -13.015625 C 35.453125 -11.015625 35.050781 -9.175781 34.25 -7.5 C 33.457031 -5.820312 32.335938 -4.378906 30.890625 -3.171875 C 29.453125 -1.972656 27.734375 -1.046875 25.734375 -0.390625 C 23.734375 0.265625 21.535156 0.59375 19.140625 0.59375 C 16.859375 0.59375 14.804688 0.273438 12.984375 -0.359375 C 11.171875 -0.992188 9.320312 -2.070312 7.4375 -3.59375 L 5.765625 -0.65625 L 4.375 -0.65625 Z M 3.484375 -14.09375 "/></g></g></g><path fill="#e00051" d="M 187.773438 172.035156 C 187.773438 172.035156 179.421875 172.304688 172.15625 171.347656 C 168.082031 170.808594 166.363281 167.414062 165.902344 164.183594 C 165.542969 161.652344 165.957031 159.222656 166.617188 158.34375 C 160.195312 158.078125 159.082031 152.4375 159.082031 152.4375 C 159.082031 152.4375 156.699219 152.128906 156.3125 152.015625 C 156.058594 151.941406 154.296875 150.800781 153.070312 150.027344 C 152.449219 149.640625 151.96875 149.34375 151.890625 149.332031 C 151.660156 149.292969 150.316406 144.421875 150.316406 144.421875 L 145.738281 142.808594 L 142.703125 135.5625 L 142.960938 133.917969 L 143.472656 130.6875 L 139.164062 128.042969 L 138.085938 120.140625 L 138.640625 117.867188 L 139.703125 113.503906 L 142.125 110.742188 C 142.125 110.742188 140.78125 106.5625 140.78125 106.449219 C 140.78125 106.402344 140.921875 105.671875 141.089844 104.828125 C 141.332031 103.625 141.625 102.191406 141.625 102.191406 L 145.703125 98.046875 L 147.816406 95.132812 C 147.816406 95.132812 147.832031 95.078125 147.863281 94.980469 C 148.148438 94.015625 149.699219 88.8125 149.699219 88.496094 C 149.699219 88.152344 152.277344 85.925781 152.277344 85.925781 L 154.878906 85.277344 L 161.003906 83.742188 C 161.003906 83.742188 161.390625 81.746094 161.390625 81.398438 C 161.390625 81.148438 163.539062 79.160156 164.6875 78.117188 C 165.105469 77.738281 165.386719 77.488281 165.386719 77.488281 L 169.808594 76.988281 C 169.808594 76.988281 173.347656 72.882812 173.421875 72.730469 C 173.5 72.578125 179.230469 71.3125 179.230469 71.3125 L 187.417969 74.304688 L 187.421875 75.042969 L 187.476562 90.179688 L 187.523438 103.050781 L 187.566406 115.425781 L 187.613281 127.605469 L 187.65625 139.683594 L 187.699219 151.699219 L 187.742188 163.683594 Z M 187.773438 172.035156 " fill-opacity="1" fill-rule="nonzero"/><path fill="#ffb401" d="M 187.742188 163.683594 C 183.421875 164.257812 179.015625 164.554688 174.539062 164.554688 C 171.628906 164.554688 168.75 164.429688 165.902344 164.183594 C 165.542969 161.652344 165.957031 159.222656 166.617188 158.34375 C 160.195312 158.078125 159.082031 152.4375 159.082031 152.4375 C 159.082031 152.4375 156.699219 152.128906 156.3125 152.015625 C 156.058594 151.941406 154.296875 150.800781 153.070312 150.027344 C 152.449219 149.640625 151.96875 149.34375 151.890625 149.332031 C 151.660156 149.292969 150.316406 144.421875 150.316406 144.421875 L 145.738281 142.808594 L 142.703125 135.5625 L 142.960938 133.917969 L 143.472656 130.6875 L 139.164062 128.042969 L 138.085938 120.140625 L 138.640625 117.867188 L 139.703125 113.503906 L 142.125 110.742188 C 142.125 110.742188 140.78125 106.5625 140.78125 106.449219 C 140.78125 106.402344 140.921875 105.671875 141.089844 104.828125 C 141.332031 103.625 141.625 102.191406 141.625 102.191406 L 145.703125 98.046875 L 147.816406 95.132812 C 147.816406 95.132812 147.832031 95.078125 147.863281 94.980469 C 148.148438 94.015625 149.699219 88.8125 149.699219 88.496094 C 149.699219 88.152344 152.277344 85.925781 152.277344 85.925781 L 154.878906 85.277344 L 161.003906 83.742188 C 161.003906 83.742188 161.390625 81.746094 161.390625 81.398438 C 161.390625 81.148438 163.539062 79.160156 164.6875 78.117188 C 165.105469 77.738281 165.386719 77.488281 165.386719 77.488281 L 169.808594 76.988281 C 169.808594 76.988281 173.347656 72.882812 173.421875 72.730469 C 173.5 72.578125 179.230469 71.3125 179.230469 71.3125 L 187.417969 74.304688 L 187.421875 75.042969 L 187.476562 90.179688 L 187.523438 103.050781 L 187.566406 115.425781 L 187.613281 127.605469 L 187.65625 139.683594 L 187.699219 151.699219 Z M 187.742188 163.683594 " fill-opacity="0.1" fill-rule="nonzero"/><path fill="#ffb401" d="M 187.699219 151.699219 C 183.40625 152.351562 179.011719 152.6875 174.539062 152.6875 C 167.132812 152.6875 159.941406 151.765625 153.070312 150.027344 C 152.449219 149.640625 151.96875 149.34375 151.890625 149.332031 C 151.660156 149.292969 150.316406 144.421875 150.316406 144.421875 L 145.738281 142.808594 L 142.703125 135.5625 L 142.960938 133.917969 L 143.472656 130.6875 L 139.164062 128.042969 L 138.085938 120.140625 L 138.640625 117.867188 L 139.703125 113.503906 L 142.125 110.742188 C 142.125 110.742188 140.78125 106.5625 140.78125 106.449219 C 140.78125 106.402344 140.921875 105.671875 141.089844 104.828125 C 141.332031 103.625 141.625 102.191406 141.625 102.191406 L 145.703125 98.046875 L 147.816406 95.132812 C 147.816406 95.132812 147.832031 95.078125 147.863281 94.980469 C 148.148438 94.015625 149.699219 88.8125 149.699219 88.496094 C 149.699219 88.152344 152.277344 85.925781 152.277344 85.925781 L 154.878906 85.277344 L 161.003906 83.742188 C 161.003906 83.742188 161.390625 81.746094 161.390625 81.398438 C 161.390625 81.148438 163.539062 79.160156 164.6875 78.117188 C 165.105469 77.738281 165.386719 77.488281 165.386719 77.488281 L 169.808594 76.988281 C 169.808594 76.988281 173.347656 72.882812 173.421875 72.730469 C 173.5 72.578125 179.230469 71.3125 179.230469 71.3125 L 187.417969 74.304688 L 187.421875 75.042969 L 187.476562 90.179688 L 187.523438 103.050781 L 187.566406 115.425781 L 187.613281 127.605469 L 187.65625 139.683594 Z M 187.699219 151.699219 " fill-opacity="0.1" fill-rule="nonzero"/><path fill="#ffb401" d="M 187.65625 139.683594 C 183.394531 140.429688 179.011719 140.820312 174.539062 140.820312 C 163.273438 140.820312 152.574219 138.347656 142.960938 133.917969 L 143.472656 130.6875 L 139.164062 128.042969 L 138.085938 120.140625 L 138.640625 117.867188 L 139.703125 113.503906 L 142.125 110.742188 C 142.125 110.742188 140.78125 106.5625 140.78125 106.449219 C 140.78125 106.402344 140.921875 105.671875 141.089844 104.828125 C 141.332031 103.625 141.625 102.191406 141.625 102.191406 L 145.703125 98.046875 L 147.816406 95.132812 C 147.816406 95.132812 147.832031 95.078125 147.863281 94.980469 C 148.148438 94.015625 149.699219 88.8125 149.699219 88.496094 C 149.699219 88.152344 152.277344 85.925781 152.277344 85.925781 L 154.878906 85.277344 L 161.003906 83.742188 C 161.003906 83.742188 161.390625 81.746094 161.390625 81.398438 C 161.390625 81.148438 163.539062 79.160156 164.6875 78.117188 C 165.105469 77.738281 165.386719 77.488281 165.386719 77.488281 L 169.808594 76.988281 C 169.808594 76.988281 173.347656 72.882812 173.421875 72.730469 C 173.5 72.578125 179.230469 71.3125 179.230469 71.3125 L 187.417969 74.304688 L 187.421875 75.042969 L 187.476562 90.179688 L 187.523438 103.050781 L 187.566406 115.425781 L 187.613281 127.605469 Z M 187.65625 139.683594 " fill-opacity="0.1" fill-rule="nonzero"/><path fill="#ffb401" d="M 187.613281 127.605469 C 183.390625 128.488281 179.019531 128.949219 174.539062 128.949219 C 161.234375 128.949219 148.867188 124.859375 138.640625 117.867188 L 139.703125 113.503906 L 142.125 110.742188 C 142.125 110.742188 140.78125 106.5625 140.78125 106.449219 C 140.78125 106.402344 140.921875 105.671875 141.089844 104.828125 C 141.332031 103.625 141.625 102.191406 141.625 102.191406 L 145.703125 98.046875 L 147.816406 95.132812 C 147.816406 95.132812 147.832031 95.078125 147.863281 94.980469 C 148.148438 94.015625 149.699219 88.8125 149.699219 88.496094 C 149.699219 88.152344 152.277344 85.925781 152.277344 85.925781 L 154.878906 85.277344 L 161.003906 83.742188 C 161.003906 83.742188 161.390625 81.746094 161.390625 81.398438 C 161.390625 81.148438 163.539062 79.160156 164.6875 78.117188 C 165.105469 77.738281 165.386719 77.488281 165.386719 77.488281 L 169.808594 76.988281 C 169.808594 76.988281 173.347656 72.882812 173.421875 72.730469 C 173.5 72.578125 179.230469 71.3125 179.230469 71.3125 L 187.417969 74.304688 L 187.421875 75.042969 L 187.476562 90.179688 L 187.523438 103.050781 L 187.566406 115.425781 Z M 187.613281 127.605469 " fill-opacity="0.1" fill-rule="nonzero"/><path fill="#ffb401" d="M 187.566406 115.425781 C 183.402344 116.507812 179.035156 117.082031 174.539062 117.082031 C 161.800781 117.082031 150.121094 112.46875 141.089844 104.828125 C 141.332031 103.625 141.625 102.191406 141.625 102.191406 L 145.703125 98.046875 L 147.816406 95.132812 C 147.816406 95.132812 147.832031 95.078125 147.863281 94.980469 C 148.148438 94.015625 149.699219 88.8125 149.699219 88.496094 C 149.699219 88.152344 152.277344 85.925781 152.277344 85.925781 L 154.878906 85.277344 L 161.003906 83.742188 C 161.003906 83.742188 161.390625 81.746094 161.390625 81.398438 C 161.390625 81.148438 163.539062 79.160156 164.6875 78.117188 C 165.105469 77.738281 165.386719 77.488281 165.386719 77.488281 L 169.808594 76.988281 C 169.808594 76.988281 173.347656 72.882812 173.421875 72.730469 C 173.5 72.578125 179.230469 71.3125 179.230469 71.3125 L 187.417969 74.304688 L 187.421875 75.042969 L 187.476562 90.179688 L 187.523438 103.050781 Z M 187.566406 115.425781 " fill-opacity="0.1" fill-rule="nonzero"/><path fill="#ffb401" d="M 187.523438 103.050781 C 183.449219 104.453125 179.082031 105.214844 174.539062 105.214844 C 164.289062 105.214844 154.933594 101.339844 147.863281 94.980469 C 148.148438 94.015625 149.699219 88.8125 149.699219 88.496094 C 149.699219 88.152344 152.277344 85.925781 152.277344 85.925781 L 154.878906 85.277344 L 161.003906 83.742188 C 161.003906 83.742188 161.390625 81.746094 161.390625 81.398438 C 161.390625 81.148438 163.539062 79.160156 164.6875 78.117188 C 165.105469 77.738281 165.386719 77.488281 165.386719 77.488281 L 169.808594 76.988281 C 169.808594 76.988281 173.347656 72.882812 173.421875 72.730469 C 173.5 72.578125 179.230469 71.3125 179.230469 71.3125 L 187.417969 74.304688 L 187.421875 75.042969 L 187.476562 90.179688 Z M 187.523438 103.050781 " fill-opacity="0.1" fill-rule="nonzero"/><path fill="#ffb401" d="M 187.476562 90.179688 C 183.605469 92.203125 179.203125 93.347656 174.539062 93.347656 C 166.882812 93.347656 159.933594 90.261719 154.878906 85.277344 L 161.003906 83.742188 C 161.003906 83.742188 161.390625 81.746094 161.390625 81.398438 C 161.390625 81.148438 163.539062 79.160156 164.6875 78.117188 C 165.105469 77.738281 165.386719 77.488281 165.386719 77.488281 L 169.808594 76.988281 C 169.808594 76.988281 173.347656 72.882812 173.421875 72.730469 C 173.5 72.578125 179.230469 71.3125 179.230469 71.3125 L 187.417969 74.304688 L 187.421875 75.042969 Z M 187.476562 90.179688 " fill-opacity="0.1" fill-rule="nonzero"/><path fill="#ffb401" d="M 187.421875 75.042969 C 184.488281 78.949219 179.808594 81.476562 174.539062 81.476562 C 170.828125 81.476562 167.410156 80.226562 164.6875 78.117188 C 165.105469 77.738281 165.386719 77.488281 165.386719 77.488281 L 169.808594 76.988281 C 169.808594 76.988281 173.347656 72.882812 173.421875 72.730469 C 173.5 72.578125 179.230469 71.3125 179.230469 71.3125 L 187.417969 74.304688 Z M 187.421875 75.042969 " fill-opacity="0.1" fill-rule="nonzero"/><g clip-path="url(#68b6749911)"><path fill="#001447" d="M 200.796875 203.027344 C 203.054688 214.121094 174.140625 214.117188 176.398438 203.027344 Z M 200.796875 203.027344 " fill-opacity="1" fill-rule="nonzero"/></g><path fill="#001447" d="M 189.679688 173.464844 C 189.023438 173.464844 188.363281 173.449219 187.710938 173.421875 C 186.921875 173.386719 186.308594 172.722656 186.34375 171.933594 C 186.378906 171.148438 187.042969 170.535156 187.835938 170.570312 C 188.445312 170.59375 189.066406 170.609375 189.679688 170.609375 C 190.472656 170.609375 191.109375 171.246094 191.109375 172.035156 C 191.109375 172.824219 190.472656 173.464844 189.679688 173.464844 Z M 189.679688 173.464844 " fill-opacity="1" fill-rule="nonzero"/><path fill="#ffb401" d="M 236.566406 118.859375 C 236.546875 119.804688 236.496094 120.746094 236.410156 121.6875 C 236.179688 124.269531 235.699219 126.835938 234.960938 129.339844 C 234.679688 130.289062 234.375 131.242188 234.039062 132.199219 C 233.410156 134 232.671875 135.808594 231.808594 137.589844 C 230.828125 139.601562 229.613281 141.476562 228.230469 143.230469 C 226.515625 145.417969 224.550781 147.414062 222.488281 149.253906 C 221.585938 150.058594 220.71875 150.886719 219.878906 151.726562 C 216.871094 154.738281 214.28125 157.957031 212.160156 161.265625 C 211.933594 161.617188 211.714844 161.972656 211.5 162.324219 C 210.574219 163.847656 209.785156 165.652344 209.230469 167.351562 C 208.339844 170.085938 208.050781 171.542969 206.878906 172.378906 C 206.824219 172.417969 206.773438 172.457031 206.71875 172.496094 L 187.425781 172.496094 L 187.425781 76.824219 C 187.425781 75.617188 187.800781 74.503906 188.433594 73.582031 C 189.527344 71.988281 191.402344 70.976562 193.488281 71.09375 C 207.054688 71.855469 217.753906 77.734375 225.152344 86.761719 C 229.03125 91.492188 232.003906 97.085938 234.003906 103.261719 C 234.722656 105.460938 235.3125 107.734375 235.777344 110.070312 C 236.355469 112.972656 236.621094 115.921875 236.566406 118.859375 Z M 236.566406 118.859375 " fill-opacity="1" fill-rule="nonzero"/><g mask="url(#d74e57bdab)"><g transform="matrix(1, 0, 0, 1, 187, 71)"><g clip-path="url(#20964c0363)"><g clip-path="url(#5da701b10c)"><path fill="#e00051" d="M 32.191406 9.839844 C 24.839844 5.578125 16.164062 2.320312 7.410156 0.152344 C 17.140625 0.75 25.523438 4.328125 32.191406 9.839844 Z M 32.191406 9.839844 " fill-opacity="1" fill-rule="nonzero"/></g><g clip-path="url(#f9a0bfd0a6)"><path fill="#e00051" d="M 49.507812 49.074219 C 49.023438 57.320312 46.265625 65.628906 41.230469 72.230469 C 36.144531 78.34375 29.113281 83.414062 25.160156 90.265625 C 23.929688 92.121094 22.914062 94.230469 22.230469 96.351562 C 21.289062 99.210938 21.074219 100.578125 19.71875 101.496094 L 0.425781 101.496094 L 0.425781 100.117188 L 4.996094 100.117188 C 6.347656 99.207031 6.570312 97.828125 7.507812 94.972656 C 8.191406 92.847656 9.292969 90.792969 10.4375 88.886719 C 24.546875 65.367188 36.984375 76.335938 49.480469 49.140625 C 49.488281 49.117188 49.5 49.097656 49.511719 49.074219 Z M 49.507812 49.074219 " fill-opacity="1" fill-rule="nonzero"/></g></g></g></g><path fill="#e00051" d="M 236.566406 118.859375 C 236.5 122.398438 235.96875 125.925781 234.960938 129.339844 C 234.679688 130.289062 234.375 131.242188 234.039062 132.199219 C 233.410156 134 232.671875 135.808594 231.808594 137.589844 C 230.828125 139.601562 229.613281 141.476562 228.230469 143.230469 C 226.515625 145.417969 224.550781 147.414062 222.488281 149.253906 C 221.585938 150.058594 220.71875 150.886719 219.878906 151.726562 C 216.871094 154.738281 214.28125 157.957031 212.160156 161.265625 C 211.933594 161.617188 211.714844 161.972656 211.5 162.324219 C 210.574219 163.847656 209.785156 165.652344 209.230469 167.351562 C 208.339844 170.085938 208.050781 171.542969 206.878906 172.378906 C 206.824219 172.417969 206.773438 172.457031 206.71875 172.496094 L 187.425781 172.496094 L 187.425781 83.625 C 191.304688 83.09375 195.261719 82.816406 199.28125 82.816406 C 208.289062 82.816406 216.980469 84.199219 225.152344 86.761719 C 229.03125 91.492188 232.003906 97.085938 234.003906 103.261719 C 234.722656 105.460938 235.3125 107.734375 235.777344 110.070312 C 236.355469 112.972656 236.621094 115.921875 236.566406 118.859375 Z M 236.566406 118.859375 " fill-opacity="0.1" fill-rule="nonzero"/><path fill="#e00051" d="M 236.566406 118.859375 C 236.5 122.398438 235.96875 125.925781 234.960938 129.339844 C 234.679688 130.289062 234.375 131.242188 234.039062 132.199219 C 233.410156 134 232.671875 135.808594 231.808594 137.589844 C 230.828125 139.601562 229.613281 141.476562 228.230469 143.230469 C 226.515625 145.417969 224.550781 147.414062 222.488281 149.253906 C 221.585938 150.058594 220.71875 150.886719 219.878906 151.726562 C 216.871094 154.738281 214.28125 157.957031 212.160156 161.265625 C 211.933594 161.617188 211.714844 161.972656 211.5 162.324219 C 210.574219 163.847656 209.785156 165.652344 209.230469 167.351562 C 208.339844 170.085938 208.050781 171.542969 206.878906 172.378906 C 206.824219 172.417969 206.773438 172.457031 206.71875 172.496094 L 187.425781 172.496094 L 187.425781 95.625 C 191.289062 95.007812 195.246094 94.6875 199.28125 94.6875 C 211.8125 94.6875 223.628906 97.785156 234.003906 103.261719 C 234.722656 105.460938 235.3125 107.734375 235.777344 110.070312 C 236.355469 112.972656 236.621094 115.921875 236.566406 118.859375 Z M 236.566406 118.859375 " fill-opacity="0.1" fill-rule="nonzero"/><path fill="#e00051" d="M 236.566406 118.859375 C 236.5 122.398438 235.96875 125.925781 234.960938 129.339844 C 234.679688 130.289062 234.375 131.242188 234.039062 132.199219 C 233.410156 134 232.671875 135.808594 231.808594 137.589844 C 230.828125 139.601562 229.613281 141.476562 228.230469 143.230469 C 226.515625 145.417969 224.550781 147.414062 222.488281 149.253906 C 221.585938 150.058594 220.71875 150.886719 219.878906 151.726562 C 216.871094 154.738281 214.28125 157.957031 212.160156 161.265625 C 211.933594 161.617188 211.714844 161.972656 211.5 162.324219 C 210.574219 163.847656 209.785156 165.652344 209.230469 167.351562 C 208.339844 170.085938 208.050781 171.542969 206.878906 172.378906 C 206.824219 172.417969 206.773438 172.457031 206.71875 172.496094 L 187.425781 172.496094 L 187.425781 107.675781 C 191.265625 106.941406 195.230469 106.554688 199.28125 106.554688 C 213.238281 106.554688 226.140625 111.132812 236.566406 118.859375 Z M 236.566406 118.859375 " fill-opacity="0.1" fill-rule="nonzero"/><path fill="#e00051" d="M 234.039062 132.199219 C 233.410156 134 232.671875 135.808594 231.808594 137.589844 C 230.828125 139.601562 229.613281 141.476562 228.230469 143.230469 C 226.515625 145.417969 224.550781 147.414062 222.488281 149.253906 C 221.585938 150.058594 220.71875 150.886719 219.878906 151.726562 C 216.871094 154.738281 214.28125 157.957031 212.160156 161.265625 C 211.933594 161.617188 211.714844 161.972656 211.5 162.324219 C 210.574219 163.847656 209.785156 165.652344 209.230469 167.351562 C 208.339844 170.085938 208.050781 171.542969 206.878906 172.378906 C 206.824219 172.417969 206.773438 172.457031 206.71875 172.496094 L 187.425781 172.496094 L 187.425781 119.820312 C 191.230469 118.90625 195.199219 118.421875 199.28125 118.421875 C 212.71875 118.421875 224.953125 123.660156 234.039062 132.199219 Z M 234.039062 132.199219 " fill-opacity="0.1" fill-rule="nonzero"/><path fill="#e00051" d="M 228.230469 143.230469 C 226.515625 145.417969 224.550781 147.414062 222.488281 149.253906 C 221.585938 150.058594 220.71875 150.886719 219.878906 151.726562 C 216.871094 154.738281 214.28125 157.957031 212.160156 161.265625 C 211.933594 161.617188 211.714844 161.972656 211.5 162.324219 C 210.574219 163.847656 209.785156 165.652344 209.230469 167.351562 C 208.339844 170.085938 208.050781 171.542969 206.878906 172.378906 C 206.824219 172.417969 206.773438 172.457031 206.71875 172.496094 L 187.425781 172.496094 L 187.425781 132.136719 C 191.164062 130.9375 195.148438 130.292969 199.28125 130.292969 C 210.773438 130.292969 221.113281 135.292969 228.230469 143.230469 Z M 228.230469 143.230469 " fill-opacity="0.1" fill-rule="nonzero"/><path fill="#e00051" d="M 219.878906 151.726562 C 216.871094 154.738281 214.28125 157.957031 212.160156 161.265625 C 211.933594 161.617188 211.714844 161.972656 211.5 162.324219 C 210.574219 163.847656 209.785156 165.652344 209.230469 167.351562 C 208.339844 170.085938 208.050781 171.542969 206.878906 172.378906 C 206.824219 172.417969 206.773438 172.457031 206.71875 172.496094 L 187.425781 172.496094 L 187.425781 144.902344 C 191.007812 143.148438 195.03125 142.160156 199.28125 142.160156 C 207.53125 142.160156 214.929688 145.878906 219.878906 151.726562 Z M 219.878906 151.726562 " fill-opacity="0.1" fill-rule="nonzero"/><path fill="#e00051" d="M 212.160156 161.265625 C 211.933594 161.617188 211.714844 161.972656 211.5 162.324219 C 210.574219 163.847656 209.785156 165.652344 209.230469 167.351562 C 208.339844 170.085938 208.050781 171.542969 206.878906 172.378906 C 206.824219 172.417969 206.773438 172.457031 206.71875 172.496094 L 187.425781 172.496094 L 187.425781 159.789062 C 190.183594 156.28125 194.46875 154.027344 199.28125 154.027344 C 204.738281 154.027344 209.519531 156.925781 212.160156 161.265625 Z M 212.160156 161.265625 " fill-opacity="0.3" fill-rule="nonzero"/><path fill="#ffffff" d="M 236.566406 118.859375 C 236.546875 119.804688 236.496094 120.746094 236.410156 121.6875 C 235.871094 121.65625 235.316406 121.601562 234.75 121.523438 C 232.328125 74.457031 189.246094 77.851562 189.246094 77.851562 L 188.433594 73.582031 C 189.527344 71.988281 191.402344 70.976562 193.488281 71.09375 C 207.054688 71.855469 217.753906 77.734375 225.152344 86.761719 C 229.03125 91.492188 232.003906 97.085938 234.003906 103.261719 C 234.722656 105.460938 235.3125 107.734375 235.777344 110.070312 C 236.355469 112.972656 236.621094 115.921875 236.566406 118.859375 Z M 236.566406 118.859375 " fill-opacity="0.55" fill-rule="nonzero"/><path fill="#001447" d="M 207.523438 173.464844 L 186.339844 173.464844 L 186.339844 75.460938 C 186.339844 73.734375 187.027344 72.121094 188.273438 70.925781 C 189.527344 69.722656 191.175781 69.09375 192.910156 69.160156 C 204.5625 69.601562 214.886719 73.789062 222.769531 81.269531 C 230.160156 88.289062 235.261719 97.992188 237.523438 109.332031 C 238.851562 115.996094 238.558594 122.894531 236.675781 129.285156 C 235.785156 132.316406 234.695312 135.167969 233.4375 137.75 C 231.429688 141.890625 228.273438 145.851562 223.789062 149.859375 C 219.460938 153.726562 215.851562 158.011719 213.070312 162.601562 C 212.246094 163.960938 211.488281 165.640625 210.9375 167.332031 C 210.800781 167.75 210.675781 168.140625 210.5625 168.503906 C 209.886719 170.652344 209.441406 172.078125 208.078125 173.058594 C 208.019531 173.105469 207.957031 173.152344 207.898438 173.195312 L 207.523438 173.460938 Z M 189.203125 170.609375 L 206.566406 170.609375 C 207.03125 170.15625 207.308594 169.308594 207.832031 167.652344 C 207.949219 167.28125 208.074219 166.882812 208.214844 166.453125 C 208.835938 164.554688 209.6875 162.664062 210.621094 161.125 C 213.550781 156.292969 217.339844 151.789062 221.882812 147.730469 C 226.082031 143.976562 229.019531 140.304688 230.867188 136.507812 C 232.050781 134.0625 233.085938 131.359375 233.933594 128.480469 C 235.6875 122.53125 235.960938 116.101562 234.722656 109.890625 C 230.15625 86.988281 214.484375 72.828125 192.808594 72.011719 C 191.851562 71.976562 190.949219 72.320312 190.265625 72.980469 C 189.582031 73.632812 189.207031 74.515625 189.207031 75.460938 L 189.207031 170.609375 Z M 189.203125 170.609375 " fill-opacity="1" fill-rule="nonzero"/><path fill="#001447" d="M 196.511719 172.949219 C 196.480469 172.949219 196.449219 172.949219 196.414062 172.945312 C 195.625 172.890625 195.03125 172.210938 195.082031 171.425781 C 195.257812 168.871094 195.382812 165.371094 195.515625 161.667969 C 195.703125 156.34375 195.898438 150.835938 196.269531 147.152344 C 197.449219 135.421875 200.839844 126.71875 206.613281 120.679688 C 206.53125 120.511719 206.453125 120.347656 206.375 120.175781 C 205.558594 118.367188 205.050781 116.40625 204.875 114.476562 C 204.039062 114.371094 203.246094 114.222656 202.546875 114.089844 C 201.351562 113.863281 200.0625 113.597656 198.777344 113.167969 C 198.257812 113.6875 197.746094 114.136719 197.296875 114.507812 L 196.832031 114.890625 C 194.117188 117.128906 190.394531 120.191406 187.234375 121.160156 C 186.480469 121.390625 185.679688 120.96875 185.449219 120.214844 C 185.21875 119.460938 185.640625 118.664062 186.394531 118.433594 C 189.011719 117.628906 192.621094 114.65625 195.007812 112.691406 L 195.476562 112.300781 C 195.621094 112.183594 195.78125 112.046875 195.957031 111.894531 C 195.882812 111.847656 195.808594 111.804688 195.734375 111.753906 C 193.28125 110.199219 191.917969 107.445312 192.085938 104.390625 C 192.140625 103.367188 192.3125 100.25 195.269531 99.226562 C 197.140625 98.578125 199.234375 99.023438 200.480469 100.332031 C 201.613281 101.523438 202.339844 103.078125 202.527344 104.707031 C 202.789062 106.984375 201.949219 109.0625 200.777344 110.785156 C 201.554688 110.988281 202.335938 111.144531 203.074219 111.285156 C 203.691406 111.402344 204.289062 111.507812 204.867188 111.59375 C 204.882812 111.378906 204.894531 111.164062 204.90625 110.949219 C 204.996094 109.390625 205.09375 107.773438 205.714844 106.199219 C 205.835938 105.898438 205.984375 105.605469 206.15625 105.332031 C 207.679688 102.925781 210.671875 102.425781 212.769531 102.726562 C 214.417969 102.964844 215.667969 103.855469 216.121094 105.113281 C 216.601562 106.457031 216.507812 108.003906 215.867188 109.355469 C 214.902344 111.390625 212.800781 113.113281 210.097656 114.078125 C 209.328125 114.355469 208.535156 114.503906 207.75 114.566406 C 207.90625 115.953125 208.265625 117.320312 208.800781 118.605469 C 208.875 118.542969 208.945312 118.484375 209.015625 118.425781 C 209.90625 117.679688 211 116.859375 212.335938 116.425781 C 214.335938 115.773438 216.984375 116.109375 219.078125 117.28125 C 220.988281 118.347656 222.273438 120.109375 222.515625 121.988281 C 222.828125 124.414062 221.457031 127.066406 219.324219 128.152344 C 217.222656 129.226562 214.667969 128.757812 211.730469 126.753906 C 210.371094 125.828125 209.160156 124.636719 208.136719 123.234375 C 203.148438 128.789062 200.1875 136.75 199.113281 147.4375 C 198.75 151.03125 198.558594 156.492188 198.371094 161.773438 C 198.238281 165.5 198.109375 169.019531 197.933594 171.621094 C 197.882812 172.375 197.253906 172.949219 196.507812 172.949219 Z M 210.199219 121.183594 C 211.070312 122.460938 212.136719 123.570312 213.347656 124.394531 C 215.351562 125.761719 216.929688 126.171875 218.027344 125.609375 C 219.101562 125.0625 219.84375 123.601562 219.683594 122.351562 C 219.5625 121.394531 218.777344 120.378906 217.6875 119.769531 C 216.277344 118.980469 214.488281 118.726562 213.230469 119.136719 C 212.359375 119.421875 211.542969 120.042969 210.859375 120.613281 C 210.636719 120.800781 210.417969 120.988281 210.203125 121.183594 Z M 211.65625 105.5 C 210.484375 105.5 209.1875 105.890625 208.578125 106.855469 C 208.503906 106.976562 208.433594 107.109375 208.378906 107.246094 C 207.925781 108.394531 207.847656 109.714844 207.765625 111.113281 C 207.753906 111.308594 207.742188 111.507812 207.730469 111.703125 C 208.214844 111.652344 208.683594 111.550781 209.132812 111.390625 C 211.097656 110.6875 212.652344 109.46875 213.285156 108.132812 C 213.605469 107.460938 213.65625 106.707031 213.429688 106.070312 C 213.359375 105.878906 212.945312 105.632812 212.367188 105.550781 C 212.140625 105.515625 211.898438 105.5 211.652344 105.5 Z M 197.015625 101.789062 C 196.746094 101.789062 196.46875 101.832031 196.210938 101.921875 C 195.523438 102.160156 195.042969 102.695312 194.945312 104.546875 C 194.832031 106.585938 195.683594 108.335938 197.273438 109.347656 C 197.503906 109.496094 197.742188 109.632812 197.988281 109.757812 C 199.03125 108.410156 199.886719 106.746094 199.6875 105.03125 C 199.570312 104.011719 199.117188 103.039062 198.410156 102.296875 C 198.097656 101.96875 197.566406 101.789062 197.015625 101.789062 Z M 197.015625 101.789062 " fill-opacity="1" fill-rule="nonzero"/><path fill="#001447" d="M 173.070312 84.519531 C 172.746094 84.519531 172.421875 84.410156 172.152344 84.1875 C 170.054688 82.4375 168.921875 80.535156 168.792969 78.539062 C 168.671875 76.683594 169.445312 74.796875 171.027344 73.085938 C 173.144531 70.796875 176.058594 69.511719 179.023438 69.546875 C 181.699219 69.585938 183.730469 70.640625 185.363281 71.492188 C 185.921875 71.78125 186.449219 72.058594 186.921875 72.246094 C 187.65625 72.539062 188.011719 73.371094 187.714844 74.101562 C 187.421875 74.835938 186.585938 75.1875 185.855469 74.894531 C 185.25 74.652344 184.664062 74.347656 184.039062 74.023438 C 182.535156 73.242188 180.980469 72.429688 178.984375 72.402344 C 176.832031 72.371094 174.699219 73.328125 173.132812 75.023438 C 172.078125 76.160156 171.578125 77.28125 171.648438 78.355469 C 171.726562 79.542969 172.511719 80.769531 173.988281 82 C 174.59375 82.503906 174.675781 83.40625 174.167969 84.007812 C 173.886719 84.347656 173.476562 84.523438 173.070312 84.523438 Z M 173.070312 84.519531 " fill-opacity="1" fill-rule="nonzero"/><path fill="#001447" d="M 174.261719 93.027344 C 172.605469 93.027344 170.925781 92.578125 169.414062 91.660156 C 168.738281 91.253906 168.523438 90.375 168.933594 89.703125 C 169.339844 89.027344 170.222656 88.8125 170.898438 89.222656 C 173.53125 90.816406 176.316406 90.210938 177.90625 88.90625 C 179.484375 87.613281 179.949219 85.675781 179.183594 83.585938 C 178.910156 82.84375 179.292969 82.023438 180.035156 81.753906 C 180.773438 81.480469 181.597656 81.863281 181.871094 82.601562 C 183.0625 85.851562 182.257812 89.03125 179.726562 91.109375 C 178.171875 92.382812 176.238281 93.027344 174.261719 93.027344 Z M 174.261719 93.027344 " fill-opacity="1" fill-rule="nonzero"/><path fill="#001447" d="M 160.007812 97.199219 C 157.285156 97.199219 154.375 95.464844 154.015625 92.398438 C 153.925781 91.617188 154.484375 90.90625 155.269531 90.816406 C 156.054688 90.722656 156.765625 91.285156 156.859375 92.066406 C 157.035156 93.570312 158.726562 94.421875 160.191406 94.34375 C 161.089844 94.292969 163.191406 93.820312 163.230469 90.453125 C 163.238281 89.671875 163.875 89.042969 164.660156 89.042969 C 164.664062 89.042969 164.671875 89.042969 164.675781 89.042969 C 165.464844 89.050781 166.097656 89.695312 166.089844 90.484375 C 166.039062 95.214844 162.960938 97.050781 160.34375 97.191406 C 160.234375 97.195312 160.121094 97.199219 160.011719 97.199219 Z M 160.007812 97.199219 " fill-opacity="1" fill-rule="nonzero"/><path fill="#001447" d="M 183.324219 113.855469 C 182.617188 113.855469 182.007812 113.335938 181.90625 112.625 C 181.390625 108.910156 181.988281 106.671875 182.964844 105.324219 C 181.980469 104.824219 181.179688 104.140625 180.558594 103.273438 C 179.160156 101.320312 178.820312 98.636719 179.546875 95.300781 C 179.558594 95.25 179.566406 95.207031 179.574219 95.175781 C 179.730469 94.402344 180.484375 93.902344 181.257812 94.058594 C 182.03125 94.214844 182.535156 94.964844 182.378906 95.738281 C 182.371094 95.78125 182.355469 95.839844 182.34375 95.90625 C 181.65625 99.039062 182.257812 100.742188 182.886719 101.613281 C 183.605469 102.617188 184.789062 103.203125 186.503906 103.40625 C 187.210938 103.488281 187.75 104.074219 187.769531 104.785156 C 187.789062 105.492188 187.28125 106.105469 186.585938 106.230469 C 184.847656 106.53125 184.226562 108.550781 184.738281 112.230469 C 184.847656 113.011719 184.304688 113.734375 183.519531 113.839844 C 183.453125 113.851562 183.386719 113.855469 183.320312 113.855469 Z M 183.324219 113.855469 " fill-opacity="1" fill-rule="nonzero"/><path fill="#001447" d="M 160.726562 85.949219 C 159.964844 85.949219 159.332031 85.351562 159.296875 84.585938 C 159.167969 81.683594 160.21875 79.171875 162.34375 77.324219 C 164.886719 75.117188 168.445312 74.375 170.644531 74.78125 C 171.421875 74.925781 171.9375 75.671875 171.792969 76.445312 C 171.648438 77.21875 170.902344 77.734375 170.125 77.589844 C 168.847656 77.351562 166.175781 77.785156 164.222656 79.476562 C 162.757812 80.75 162.0625 82.425781 162.15625 84.460938 C 162.191406 85.246094 161.578125 85.914062 160.789062 85.949219 C 160.769531 85.949219 160.746094 85.949219 160.726562 85.949219 Z M 160.726562 85.949219 " fill-opacity="1" fill-rule="nonzero"/><path fill="#001447" d="M 170.941406 118.28125 C 170.808594 118.28125 170.675781 118.265625 170.542969 118.226562 C 169.785156 118.011719 169.347656 117.21875 169.566406 116.460938 C 170.90625 111.820312 170.597656 108.550781 168.667969 107.015625 C 167.164062 105.820312 165.109375 106.027344 164.691406 106.257812 L 164.597656 106.316406 L 164.496094 106.359375 C 160.0625 108.195312 156.191406 107.582031 154.734375 107.230469 L 154.640625 107.207031 L 154.550781 107.171875 C 147.472656 104.429688 145.992188 99.492188 145.738281 96.796875 C 145.296875 92.085938 147.8125 87.171875 152 84.570312 C 155.988281 82.089844 160.730469 82.167969 165.007812 84.785156 C 165.683594 85.195312 165.894531 86.074219 165.480469 86.746094 C 165.070312 87.417969 164.1875 87.628906 163.515625 87.21875 C 158.96875 84.4375 155.300781 85.882812 153.515625 86.992188 C 150.277344 89.003906 148.253906 92.925781 148.589844 96.53125 C 148.917969 100.03125 151.371094 102.847656 155.496094 104.476562 C 156.738281 104.761719 159.789062 105.195312 163.320312 103.753906 C 164.738281 102.984375 167.9375 102.875 170.328125 104.6875 C 172.429688 106.28125 174.480469 109.753906 172.316406 117.25 C 172.136719 117.875 171.5625 118.28125 170.941406 118.28125 Z M 170.941406 118.28125 " fill-opacity="1" fill-rule="nonzero"/><path fill="#ffffff" d="M 161.433594 88.695312 C 160.835938 88.582031 160.242188 88.476562 159.652344 88.417969 C 159.0625 88.367188 158.476562 88.347656 157.902344 88.390625 C 156.757812 88.472656 155.671875 88.804688 154.796875 89.410156 C 154.359375 89.710938 153.96875 90.074219 153.636719 90.476562 C 153.304688 90.886719 153.035156 91.34375 152.820312 91.828125 C 152.394531 92.796875 152.207031 93.878906 152.261719 94.941406 C 152.28125 95.472656 152.367188 96 152.519531 96.503906 C 152.664062 97.011719 152.875 97.492188 153.144531 97.9375 C 153.6875 98.824219 154.488281 99.535156 155.464844 99.96875 C 155.957031 100.1875 156.484375 100.339844 157.035156 100.429688 C 157.585938 100.519531 158.160156 100.546875 158.738281 100.535156 C 159.902344 100.515625 161.082031 100.285156 162.269531 100.019531 C 161.742188 100.324219 161.199219 100.613281 160.625 100.832031 C 160.339844 100.957031 160.042969 101.046875 159.75 101.148438 C 159.449219 101.234375 159.148438 101.320312 158.839844 101.378906 C 158.222656 101.503906 157.585938 101.578125 156.933594 101.5625 C 156.285156 101.550781 155.625 101.449219 154.984375 101.242188 C 153.699219 100.84375 152.535156 99.964844 151.761719 98.835938 C 151.378906 98.269531 151.085938 97.644531 150.878906 97.003906 C 150.671875 96.359375 150.558594 95.691406 150.523438 95.023438 C 150.496094 94.351562 150.546875 93.679688 150.679688 93.023438 C 150.816406 92.371094 151.03125 91.726562 151.335938 91.125 C 151.640625 90.527344 152.019531 89.957031 152.492188 89.46875 C 152.957031 88.972656 153.503906 88.558594 154.097656 88.242188 C 154.695312 87.925781 155.335938 87.707031 155.984375 87.597656 C 156.632812 87.484375 157.285156 87.476562 157.917969 87.542969 C 158.550781 87.613281 159.164062 87.753906 159.75 87.945312 C 160.339844 88.140625 160.898438 88.402344 161.433594 88.695312 Z M 161.433594 88.695312 " fill-opacity="0.55" fill-rule="nonzero"/><path fill="#ffffff" d="M 146.121094 101.523438 C 145.8125 102.578125 145.644531 103.546875 145.609375 104.507812 C 145.574219 105.464844 145.667969 106.398438 145.890625 107.285156 C 146.117188 108.167969 146.476562 109.007812 147.003906 109.765625 C 147.269531 110.148438 147.578125 110.507812 147.9375 110.851562 C 148.292969 111.195312 148.699219 111.507812 149.148438 111.835938 C 148.042969 111.902344 146.894531 111.464844 146.003906 110.695312 C 145.109375 109.921875 144.492188 108.84375 144.207031 107.710938 C 143.921875 106.574219 143.949219 105.375 144.269531 104.277344 C 144.429688 103.730469 144.664062 103.203125 144.972656 102.734375 C 145.285156 102.265625 145.664062 101.839844 146.121094 101.523438 Z M 146.121094 101.523438 " fill-opacity="0.55" fill-rule="nonzero"/><path fill="#ffffff" d="M 142.703125 114.808594 C 142.148438 115.882812 141.75 116.949219 141.507812 118.039062 C 141.265625 119.128906 141.175781 120.234375 141.222656 121.328125 C 141.273438 122.425781 141.464844 123.515625 141.808594 124.578125 C 142.144531 125.644531 142.648438 126.664062 143.277344 127.699219 C 142.238281 127.066406 141.40625 126.09375 140.828125 124.992188 C 140.25 123.886719 139.921875 122.644531 139.871094 121.390625 C 139.8125 120.136719 140.023438 118.871094 140.496094 117.71875 C 140.972656 116.570312 141.710938 115.519531 142.699219 114.808594 Z M 142.703125 114.808594 " fill-opacity="0.55" fill-rule="nonzero"/><path fill="#ffffff" d="M 145.363281 134.15625 C 145.457031 134.96875 145.625 135.707031 145.882812 136.402344 C 146.136719 137.097656 146.472656 137.75 146.886719 138.351562 C 147.296875 138.949219 147.78125 139.5 148.339844 139.988281 C 148.894531 140.480469 149.527344 140.902344 150.242188 141.296875 C 149.421875 141.328125 148.589844 141.082031 147.859375 140.664062 C 147.128906 140.242188 146.492188 139.644531 146.015625 138.941406 C 145.535156 138.238281 145.210938 137.433594 145.078125 136.601562 C 144.953125 135.769531 145.019531 134.902344 145.363281 134.15625 Z M 145.363281 134.15625 " fill-opacity="0.55" fill-rule="nonzero"/><path fill="#ffffff" d="M 183.398438 76.273438 C 182.972656 75.800781 182.519531 75.390625 182.019531 75.085938 C 181.527344 74.78125 180.992188 74.578125 180.449219 74.480469 C 179.355469 74.277344 178.222656 74.46875 177.222656 74.929688 C 176.226562 75.398438 175.355469 76.140625 174.839844 77.109375 C 174.578125 77.59375 174.410156 78.136719 174.351562 78.714844 C 174.285156 79.292969 174.335938 79.902344 174.445312 80.527344 C 174.070312 80.011719 173.8125 79.398438 173.703125 78.734375 C 173.59375 78.074219 173.65625 77.367188 173.886719 76.707031 C 174.109375 76.046875 174.496094 75.441406 174.976562 74.941406 C 175.09375 74.8125 175.230469 74.699219 175.359375 74.582031 C 175.488281 74.46875 175.628906 74.367188 175.765625 74.261719 C 175.910156 74.164062 176.058594 74.074219 176.207031 73.980469 C 176.359375 73.898438 176.511719 73.820312 176.667969 73.738281 C 177.296875 73.449219 177.976562 73.269531 178.667969 73.21875 C 179.363281 73.167969 180.066406 73.25 180.722656 73.484375 C 181.375 73.714844 181.972656 74.097656 182.433594 74.589844 C 182.890625 75.078125 183.222656 75.660156 183.398438 76.269531 Z M 183.398438 76.273438 " fill-opacity="0.55" fill-rule="nonzero"/><path fill="#001447" d="M 168.78125 106.8125 C 168.714844 106.8125 168.644531 106.808594 168.578125 106.800781 C 167.796875 106.6875 167.25 105.96875 167.363281 105.1875 C 168.101562 99.988281 170.375 97.164062 172.304688 96.671875 C 173.070312 96.476562 173.839844 96.933594 174.035156 97.695312 C 174.234375 98.457031 173.773438 99.234375 173.015625 99.4375 C 172.496094 99.574219 170.796875 101.355469 170.195312 105.585938 C 170.09375 106.296875 169.480469 106.8125 168.78125 106.8125 Z M 168.78125 106.8125 " fill-opacity="1" fill-rule="nonzero"/><path fill="#001447" d="M 171.675781 114.859375 C 171.527344 114.859375 171.378906 114.835938 171.230469 114.789062 C 170.480469 114.542969 170.070312 113.734375 170.316406 112.988281 C 171.523438 109.296875 173.285156 108.730469 175.457031 108.371094 C 175.601562 108.347656 175.746094 108.324219 175.890625 108.296875 C 176.671875 108.160156 177.414062 108.675781 177.554688 109.453125 C 177.691406 110.230469 177.175781 110.96875 176.398438 111.109375 C 176.234375 111.136719 176.078125 111.164062 175.921875 111.1875 C 174.421875 111.4375 173.800781 111.539062 173.035156 113.875 C 172.839844 114.476562 172.277344 114.859375 171.675781 114.859375 Z M 171.675781 114.859375 " fill-opacity="1" fill-rule="nonzero"/><path fill="#001447" d="M 152.402344 131.992188 C 151.921875 131.992188 151.449219 131.746094 151.179688 131.304688 C 150.769531 130.632812 150.984375 129.753906 151.65625 129.34375 C 154.519531 127.605469 157.824219 124.882812 157.332031 121.804688 C 156.863281 118.90625 153.226562 116.625 151.777344 116.285156 C 151.007812 116.105469 150.527344 115.339844 150.707031 114.570312 C 150.886719 113.804688 151.65625 113.324219 152.425781 113.503906 C 154.695312 114.03125 159.449219 116.964844 160.152344 121.351562 C 160.4375 123.125 160.03125 124.886719 158.941406 126.589844 C 157.785156 128.398438 155.835938 130.140625 153.144531 131.78125 C 152.910156 131.921875 152.65625 131.988281 152.398438 131.988281 Z M 152.402344 131.992188 " fill-opacity="1" fill-rule="nonzero"/><path fill="#001447" d="M 166.4375 130.21875 C 162.429688 130.21875 157.644531 127.699219 157.015625 127.355469 C 156.324219 126.980469 156.066406 126.113281 156.441406 125.421875 C 156.820312 124.730469 157.6875 124.472656 158.382812 124.851562 C 160.800781 126.160156 165.492188 127.949219 167.769531 127.179688 C 169.625 126.558594 171.054688 124.628906 172.4375 122.761719 C 172.578125 122.578125 172.714844 122.394531 172.847656 122.210938 C 174.757812 119.660156 177.664062 118.074219 180.816406 117.855469 C 182.613281 117.730469 184.5625 117.875 186.617188 118.277344 C 187.390625 118.433594 187.894531 119.179688 187.742188 119.957031 C 187.589844 120.730469 186.835938 121.230469 186.0625 121.078125 C 184.257812 120.722656 182.558594 120.597656 181.015625 120.703125 C 178.695312 120.863281 176.554688 122.035156 175.140625 123.917969 C 175.007812 124.097656 174.875 124.277344 174.738281 124.460938 C 173.167969 126.578125 171.390625 128.976562 168.6875 129.886719 C 167.992188 130.121094 167.230469 130.21875 166.441406 130.21875 Z M 166.4375 130.21875 " fill-opacity="1" fill-rule="nonzero"/><path fill="#001447" d="M 182.679688 138.976562 C 181.953125 138.976562 181.183594 138.832031 180.382812 138.535156 C 179.640625 138.261719 179.261719 137.441406 179.535156 136.703125 C 179.8125 135.960938 180.632812 135.582031 181.375 135.855469 C 183.460938 136.625 184.105469 135.492188 184.316406 135.121094 C 185.183594 133.585938 184.828125 130.941406 183.621094 129.976562 C 182.121094 128.773438 179.644531 130.726562 178.652344 131.621094 C 178.066406 132.152344 177.164062 132.105469 176.632812 131.519531 C 176.101562 130.9375 176.148438 130.03125 176.734375 129.503906 C 181.347656 125.347656 184.335938 126.890625 185.410156 127.746094 C 187.703125 129.582031 188.367188 133.765625 186.804688 136.527344 C 185.894531 138.128906 184.429688 138.976562 182.675781 138.976562 Z M 182.679688 138.976562 " fill-opacity="1" fill-rule="nonzero"/><path fill="#001447" d="M 184.175781 148.21875 C 181.132812 148.21875 179.804688 146.902344 178.859375 145.425781 C 178.511719 144.882812 177.957031 144.511719 177.296875 144.386719 C 174.351562 143.8125 171.933594 141.792969 170.109375 138.375 L 170.046875 138.257812 C 169.667969 137.5625 169.925781 136.695312 170.621094 136.320312 C 171.3125 135.941406 172.183594 136.199219 172.5625 136.890625 C 172.582031 136.929688 172.609375 136.976562 172.636719 137.035156 C 174.035156 139.65625 175.789062 141.1875 177.847656 141.585938 C 179.257812 141.859375 180.507812 142.699219 181.269531 143.890625 C 181.835938 144.773438 182.476562 145.769531 185.964844 145.203125 C 186.746094 145.074219 187.480469 145.601562 187.609375 146.382812 C 187.738281 147.160156 187.210938 147.890625 186.429688 148.019531 C 185.585938 148.15625 184.84375 148.21875 184.179688 148.21875 Z M 184.175781 148.21875 " fill-opacity="1" fill-rule="nonzero"/><path fill="#001447" d="M 176.417969 154.347656 C 174.449219 154.347656 172.628906 153.800781 171.039062 152.714844 C 169.019531 151.335938 167.910156 149.472656 167.4375 148.675781 C 167.382812 148.585938 167.339844 148.511719 167.308594 148.464844 C 166.875 147.804688 167.054688 146.921875 167.714844 146.484375 C 168.375 146.050781 169.261719 146.234375 169.695312 146.890625 C 169.75 146.96875 169.8125 147.078125 169.898438 147.21875 C 170.730469 148.621094 173.269531 152.882812 179.234375 151.035156 C 179.988281 150.804688 180.789062 151.222656 181.027344 151.976562 C 181.257812 152.730469 180.835938 153.527344 180.082031 153.761719 C 178.820312 154.152344 177.59375 154.347656 176.417969 154.347656 Z M 176.417969 154.347656 " fill-opacity="1" fill-rule="nonzero"/><path fill="#001447" d="M 176.890625 172.523438 C 176.320312 172.523438 175.777344 172.175781 175.558594 171.613281 C 174.746094 169.527344 174.738281 163.875 177.632812 160.519531 C 179.082031 158.835938 181.828125 157.0625 186.703125 158.148438 C 187.472656 158.324219 187.957031 159.085938 187.785156 159.855469 C 187.613281 160.625 186.847656 161.105469 186.078125 160.933594 C 183.277344 160.3125 181.167969 160.796875 179.804688 162.378906 C 177.648438 164.882812 177.785156 169.449219 178.226562 170.578125 C 178.511719 171.3125 178.148438 172.140625 177.410156 172.425781 C 177.242188 172.492188 177.066406 172.523438 176.894531 172.523438 Z M 176.890625 172.523438 " fill-opacity="1" fill-rule="nonzero"/><path fill="#001447" d="M 171.980469 173.03125 C 171.703125 173.03125 171.417969 172.949219 171.171875 172.78125 C 170.984375 172.652344 170.753906 172.507812 170.507812 172.351562 C 169.222656 171.539062 167.28125 170.3125 165.878906 168.082031 C 164.238281 165.480469 163.722656 162.097656 164.34375 158.03125 C 164.460938 157.253906 165.191406 156.71875 165.972656 156.835938 C 166.753906 156.957031 167.289062 157.683594 167.171875 158.460938 C 166 166.121094 169.636719 168.421875 172.039062 169.945312 C 172.304688 170.113281 172.554688 170.269531 172.785156 170.425781 C 173.4375 170.871094 173.605469 171.761719 173.160156 172.410156 C 172.882812 172.816406 172.433594 173.035156 171.976562 173.035156 Z M 171.980469 173.03125 " fill-opacity="1" fill-rule="nonzero"/><path fill="#001447" d="M 165.789062 159.675781 C 164.777344 159.675781 163.496094 159.558594 162.230469 159.058594 C 160.503906 158.378906 158.273438 156.746094 157.441406 152.851562 C 157.273438 152.078125 157.765625 151.320312 158.542969 151.15625 C 159.3125 150.988281 160.074219 151.480469 160.238281 152.253906 C 161.171875 156.605469 164.160156 156.976562 166.960938 156.765625 C 167.167969 156.75 167.34375 156.738281 167.5 156.734375 C 167.507812 156.734375 167.515625 156.734375 167.523438 156.734375 C 168.304688 156.734375 168.941406 157.359375 168.953125 158.140625 C 168.964844 158.929688 168.335938 159.578125 167.546875 159.589844 C 167.476562 159.589844 167.332031 159.601562 167.175781 159.613281 C 166.832031 159.640625 166.355469 159.675781 165.792969 159.675781 Z M 165.789062 159.675781 " fill-opacity="1" fill-rule="nonzero"/><path fill="#001447" d="M 157.835938 153.976562 C 157.078125 153.976562 156.296875 153.867188 155.53125 153.632812 C 152.613281 152.746094 149.625 149.882812 149.988281 144.507812 L 149.992188 144.429688 L 150.003906 144.355469 C 150.550781 141.265625 151.96875 138.976562 154.21875 137.542969 C 158.113281 135.058594 163.207031 136.03125 165.214844 136.5625 C 165.980469 136.765625 166.433594 137.546875 166.230469 138.308594 C 166.027344 139.070312 165.246094 139.523438 164.480469 139.320312 C 163.199219 138.980469 158.777344 138.019531 155.757812 139.945312 C 154.226562 140.921875 153.246094 142.546875 152.835938 144.773438 C 152.5625 149.253906 155.207031 150.550781 156.363281 150.902344 C 158.203125 151.460938 159.984375 150.890625 160.496094 150.003906 C 161.058594 149.03125 160.273438 147.402344 158.390625 145.644531 C 157.8125 145.105469 157.785156 144.203125 158.324219 143.625 C 158.863281 143.050781 159.769531 143.019531 160.34375 143.558594 C 164.558594 147.488281 163.585938 150.375 162.972656 151.433594 C 162.042969 153.039062 160.035156 153.976562 157.835938 153.976562 Z M 157.835938 153.976562 " fill-opacity="1" fill-rule="nonzero"/><path fill="#001447" d="M 151.140625 145.730469 C 148.539062 145.730469 144.800781 143.980469 142.644531 140.824219 C 140.605469 137.839844 140.445312 134.25 142.195312 130.722656 L 142.277344 130.558594 L 142.394531 130.421875 C 146.144531 126.085938 145.796875 124.238281 145.691406 123.914062 C 145.625 123.71875 145.523438 123.613281 145.359375 123.578125 C 144.589844 123.402344 144.105469 122.636719 144.28125 121.871094 C 144.457031 121.101562 145.222656 120.621094 145.992188 120.792969 C 147.148438 121.054688 148.027344 121.867188 148.40625 123.019531 C 148.925781 124.597656 148.695312 127.453125 144.683594 132.144531 C 143.453125 134.722656 143.5625 137.101562 145.007812 139.21875 C 146.75 141.765625 149.863281 142.992188 151.351562 142.867188 C 152.136719 142.796875 152.832031 143.382812 152.898438 144.167969 C 152.964844 144.953125 152.382812 145.644531 151.59375 145.710938 C 151.449219 145.722656 151.296875 145.730469 151.140625 145.730469 Z M 151.140625 145.730469 " fill-opacity="1" fill-rule="nonzero"/><path fill="#001447" d="M 147.144531 133.9375 C 143.449219 133.9375 139.1875 130.882812 137.132812 126.632812 C 134.507812 121.207031 135.980469 115.207031 141.164062 110.167969 C 141.730469 109.621094 142.636719 109.632812 143.1875 110.195312 C 143.738281 110.761719 143.726562 111.664062 143.160156 112.214844 C 137.34375 117.863281 138.5 122.894531 139.707031 125.390625 C 141.523438 129.148438 145.242188 131.351562 147.578125 131.054688 C 148.363281 130.957031 149.078125 131.507812 149.179688 132.289062 C 149.277344 133.074219 148.722656 133.789062 147.941406 133.886719 C 147.675781 133.917969 147.410156 133.9375 147.140625 133.9375 Z M 147.144531 133.9375 " fill-opacity="1" fill-rule="nonzero"/><path fill="#001447" d="M 148 116.324219 C 147.875 116.324219 147.746094 116.304688 147.617188 116.273438 C 141.328125 114.546875 139.382812 109.683594 139.660156 105.707031 C 139.984375 101 143.183594 97.0625 147.105469 96.550781 C 147.886719 96.445312 148.605469 96.996094 148.707031 97.78125 C 148.808594 98.5625 148.257812 99.277344 147.472656 99.378906 C 144.921875 99.714844 142.742188 102.578125 142.511719 105.902344 C 142.386719 107.675781 142.714844 111.964844 148.375 113.519531 C 149.136719 113.726562 149.582031 114.515625 149.375 115.273438 C 149.199219 115.90625 148.625 116.324219 147.996094 116.324219 Z M 148 116.324219 " fill-opacity="1" fill-rule="nonzero"/><path fill="#001447" d="M 192.070312 172.949219 C 192.0625 172.949219 192.054688 172.949219 192.042969 172.949219 C 191.253906 172.933594 190.625 172.285156 190.640625 171.496094 L 191.445312 125.640625 C 191.460938 124.859375 192.097656 124.238281 192.878906 124.238281 C 192.886719 124.238281 192.894531 124.238281 192.902344 124.238281 C 193.695312 124.25 194.320312 124.902344 194.308594 125.691406 L 193.5 171.546875 C 193.488281 172.324219 192.847656 172.949219 192.070312 172.949219 Z M 192.070312 172.949219 " fill-opacity="1" fill-rule="nonzero"/><path fill="#001447" d="M 158.332031 119.96875 C 157.921875 119.96875 157.515625 119.792969 157.234375 119.457031 C 156.726562 118.851562 156.804688 117.953125 157.410156 117.445312 C 159.105469 116.03125 160.210938 114.992188 160.125 113.515625 C 160.078125 112.726562 160.679688 112.054688 161.46875 112.007812 C 162.253906 111.960938 162.933594 112.558594 162.980469 113.347656 C 163.160156 116.371094 160.988281 118.179688 159.246094 119.636719 C 158.980469 119.859375 158.652344 119.96875 158.332031 119.96875 Z M 158.332031 119.96875 " fill-opacity="1" fill-rule="nonzero"/><path fill="#001447" d="M 195.414062 124.457031 C 195.414062 124.800781 195.347656 125.128906 195.21875 125.445312 C 195.085938 125.765625 194.898438 126.042969 194.65625 126.285156 C 194.410156 126.527344 194.132812 126.714844 193.8125 126.847656 C 193.496094 126.980469 193.164062 127.042969 192.820312 127.042969 C 192.476562 127.042969 192.144531 126.980469 191.828125 126.847656 C 191.507812 126.714844 191.230469 126.527344 190.984375 126.285156 C 190.742188 126.042969 190.554688 125.765625 190.421875 125.445312 C 190.292969 125.128906 190.226562 124.800781 190.226562 124.457031 C 190.226562 124.113281 190.292969 123.78125 190.421875 123.464844 C 190.554688 123.148438 190.742188 122.867188 190.984375 122.625 C 191.230469 122.382812 191.507812 122.195312 191.828125 122.066406 C 192.144531 121.933594 192.476562 121.867188 192.820312 121.867188 C 193.164062 121.867188 193.496094 121.933594 193.8125 122.066406 C 194.132812 122.195312 194.410156 122.382812 194.65625 122.625 C 194.898438 122.867188 195.085938 123.148438 195.21875 123.464844 C 195.347656 123.78125 195.414062 124.113281 195.414062 124.457031 Z M 195.414062 124.457031 " fill-opacity="1" fill-rule="nonzero"/><path fill="#e00051" d="M 208.320312 174.558594 C 208.347656 174.699219 208.4375 175 208.414062 175.148438 C 207.953125 177.730469 207.929688 179.960938 204.480469 180.496094 C 193.28125 182.230469 183.546875 182.605469 172.339844 180.546875 C 168.890625 179.914062 168.945312 177.734375 168.609375 175.140625 C 168.589844 174.996094 168.648438 174.675781 168.710938 174.546875 C 169.726562 172.292969 170.320312 169.988281 173.65625 170.632812 C 184.492188 172.730469 192.660156 172.277344 203.519531 170.402344 C 204.097656 170.300781 204.382812 170.410156 204.6875 170.386719 C 204.921875 170.367188 204.730469 170.382812 204.734375 170.382812 C 207.035156 170.632812 207.925781 172.507812 208.320312 174.5625 Z M 208.320312 174.558594 " fill-opacity="1" fill-rule="nonzero"/><path fill="#001447" d="M 208.328125 174.558594 C 208.328125 174.707031 208.441406 175 208.414062 175.144531 C 207.949219 177.730469 207.929688 179.964844 204.480469 180.496094 C 193.277344 182.230469 183.550781 182.609375 172.339844 180.542969 C 168.886719 179.90625 168.960938 177.742188 168.605469 175.136719 C 168.585938 174.988281 168.703125 174.703125 168.71875 174.554688 C 168.789062 173.90625 169.078125 173.320312 169.28125 172.75 C 170.0625 174.9375 170.0625 176.597656 172.992188 177.167969 C 183.972656 179.3125 193.4375 178.882812 204.410156 177.003906 C 206.949219 176.566406 207.097656 175.378906 208.148438 173.554688 C 208.164062 173.878906 208.328125 174.207031 208.328125 174.558594 Z M 208.328125 174.558594 " fill-opacity="0.42" fill-rule="nonzero"/><path fill="#ffb401" d="M 208.992188 174.8125 C 208.960938 174.667969 208.988281 174.351562 208.9375 174.21875 C 208.039062 171.960938 207.367188 169.53125 204.09375 170.078125 C 193.453125 171.859375 185.011719 172.609375 174.308594 170.492188 C 171.011719 169.839844 170.367188 172.125 169.367188 174.371094 C 169.3125 174.5 169.320312 174.820312 169.292969 174.960938 C 169.164062 175.585938 169.257812 176.222656 169.296875 176.808594 C 170.628906 175.011719 171.191406 173.328125 174.070312 173.902344 C 184.851562 176.050781 194 175.351562 204.722656 173.4375 C 207.203125 172.992188 207.703125 174.445312 209.042969 175.835938 C 208.996094 175.523438 209.070312 175.152344 208.992188 174.8125 Z M 208.992188 174.8125 " fill-opacity="0.6" fill-rule="nonzero"/><path fill="#ffffff" d="M 169.921875 177.5625 C 169.921875 177.5625 169.492188 171.148438 193.195312 172.757812 C 193.195312 172.757812 175.402344 170.800781 175.285156 170.800781 C 175.171875 170.800781 170.902344 170.886719 170.902344 170.886719 C 170.902344 170.886719 169.433594 174.082031 169.375 174.742188 C 169.316406 175.402344 169.546875 177.589844 169.578125 177.734375 C 169.605469 177.875 169.921875 177.558594 169.921875 177.558594 Z M 169.921875 177.5625 " fill-opacity="0.55" fill-rule="nonzero"/><path fill="#001447" d="M 187.480469 183.367188 C 182.222656 183.367188 177.230469 182.894531 172.082031 181.949219 C 167.5 181.417969 166.453125 175.945312 167.691406 173.304688 C 168.582031 171.246094 169.796875 168.425781 173.929688 169.226562 C 185.417969 171.648438 193.941406 170.316406 204.660156 168.953125 C 207.765625 168.902344 210.261719 172.605469 209.703125 176.085938 C 209.324219 178.390625 208.855469 181.261719 204.699219 181.90625 C 198.410156 182.882812 192.8125 183.367188 187.480469 183.367188 Z M 170.042969 175.066406 C 170.324219 177.3125 170.265625 178.84375 172.597656 179.140625 C 182.632812 180.984375 192.101562 180.96875 204.261719 179.085938 C 207.835938 179.035156 207.546875 171.984375 204.683594 171.8125 C 193.765625 173.277344 185.175781 174.472656 173.386719 172.03125 C 171.421875 171.449219 170.902344 173.054688 170.042969 175.066406 Z M 206.992188 175.164062 Z M 170.019531 175.117188 L 170.015625 175.132812 C 170.015625 175.132812 170.019531 175.125 170.019531 175.117188 Z M 170.039062 175.105469 Z M 207.003906 174.898438 Z M 207.003906 174.898438 " fill-opacity="1" fill-rule="nonzero"/><path fill="#e00051" d="M 208.320312 185.375 C 208.347656 185.515625 208.4375 185.816406 208.414062 185.964844 C 207.953125 188.546875 207.929688 190.777344 204.480469 191.3125 C 193.28125 193.050781 183.546875 193.421875 172.339844 191.363281 C 168.890625 190.730469 168.945312 188.550781 168.609375 185.957031 C 168.589844 185.8125 168.648438 185.492188 168.710938 185.363281 C 169.726562 183.109375 170.320312 180.804688 173.65625 181.449219 C 184.492188 183.546875 192.660156 183.09375 203.519531 181.21875 C 204.097656 181.121094 204.382812 181.226562 204.6875 181.203125 C 204.921875 181.183594 204.730469 181.199219 204.734375 181.199219 C 207.035156 181.449219 207.925781 183.324219 208.320312 185.378906 Z M 208.320312 185.375 " fill-opacity="1" fill-rule="nonzero"/><path fill="#001447" d="M 208.328125 185.375 C 208.328125 185.523438 208.441406 185.816406 208.414062 185.960938 C 207.949219 188.546875 207.929688 190.78125 204.480469 191.3125 C 193.277344 193.046875 183.550781 193.425781 172.339844 191.359375 C 168.886719 190.722656 168.960938 188.558594 168.605469 185.953125 C 168.585938 185.804688 168.703125 185.519531 168.71875 185.371094 C 168.789062 184.722656 169.078125 184.140625 169.28125 183.566406 C 170.0625 185.753906 170.0625 187.414062 172.992188 187.984375 C 183.972656 190.128906 193.4375 189.699219 204.410156 187.820312 C 206.949219 187.382812 207.097656 186.195312 208.148438 184.371094 C 208.164062 184.695312 208.328125 185.023438 208.328125 185.375 Z M 208.328125 185.375 " fill-opacity="0.42" fill-rule="nonzero"/><path fill="#ffb401" d="M 208.992188 185.628906 C 208.960938 185.488281 208.988281 185.167969 208.9375 185.039062 C 208.039062 182.777344 207.367188 180.347656 204.09375 180.894531 C 193.453125 182.675781 185.011719 183.425781 174.308594 181.308594 C 171.011719 180.65625 170.367188 182.941406 169.367188 185.1875 C 169.3125 185.316406 169.320312 185.636719 169.292969 185.78125 C 169.164062 186.402344 169.257812 187.039062 169.296875 187.625 C 170.628906 185.828125 171.191406 184.144531 174.070312 184.71875 C 184.851562 186.867188 194 186.171875 204.722656 184.253906 C 207.203125 183.808594 207.703125 185.261719 209.042969 186.652344 C 208.996094 186.339844 209.070312 185.96875 208.992188 185.628906 Z M 208.992188 185.628906 " fill-opacity="0.6" fill-rule="nonzero"/><path fill="#ffffff" d="M 169.960938 189.183594 C 169.960938 189.183594 169.53125 182.769531 193.234375 184.378906 C 193.234375 184.378906 175.441406 182.421875 175.324219 182.421875 C 175.210938 182.421875 170.941406 182.507812 170.941406 182.507812 C 170.941406 182.507812 169.472656 185.703125 169.414062 186.363281 C 169.355469 187.023438 169.585938 189.210938 169.617188 189.355469 C 169.644531 189.496094 169.960938 189.183594 169.960938 189.183594 Z M 169.960938 189.183594 " fill-opacity="0.55" fill-rule="nonzero"/><path fill="#001447" d="M 187.480469 194.183594 C 182.222656 194.183594 177.230469 193.710938 172.082031 192.765625 C 167.5 192.234375 166.453125 186.761719 167.691406 184.121094 C 168.582031 182.0625 169.796875 179.246094 173.929688 180.046875 C 185.417969 182.464844 193.941406 181.132812 204.660156 179.773438 C 207.765625 179.71875 210.261719 183.421875 209.703125 186.902344 C 209.324219 189.210938 208.855469 192.082031 204.699219 192.722656 C 198.410156 193.699219 192.8125 194.183594 187.480469 194.183594 Z M 170.042969 185.882812 C 170.324219 188.128906 170.265625 189.660156 172.597656 189.957031 C 182.632812 191.800781 192.101562 191.785156 204.261719 189.902344 C 207.835938 189.851562 207.546875 182.800781 204.683594 182.628906 C 193.765625 184.09375 185.175781 185.289062 173.386719 182.847656 C 171.421875 182.265625 170.902344 183.871094 170.042969 185.882812 Z M 206.992188 185.980469 Z M 170.019531 185.9375 L 170.015625 185.949219 C 170.015625 185.949219 170.019531 185.941406 170.019531 185.9375 Z M 170.039062 185.921875 Z M 207.003906 185.714844 Z M 207.003906 185.714844 " fill-opacity="1" fill-rule="nonzero"/><path fill="#e00051" d="M 208.320312 196.195312 C 208.347656 196.332031 208.4375 196.632812 208.414062 196.78125 C 207.953125 199.363281 207.929688 201.597656 204.480469 202.128906 C 193.28125 203.867188 183.546875 204.238281 172.339844 202.179688 C 168.890625 201.546875 168.945312 199.367188 168.609375 196.773438 C 168.589844 196.628906 168.648438 196.308594 168.710938 196.179688 C 169.726562 193.925781 170.320312 191.621094 173.65625 192.265625 C 184.492188 194.363281 192.660156 193.910156 203.519531 192.035156 C 204.097656 191.9375 204.382812 192.042969 204.6875 192.019531 C 204.921875 192.003906 204.730469 192.015625 204.734375 192.015625 C 207.035156 192.265625 207.925781 194.140625 208.320312 196.195312 Z M 208.320312 196.195312 " fill-opacity="1" fill-rule="nonzero"/><path fill="#001447" d="M 208.328125 196.191406 C 208.328125 196.339844 208.441406 196.632812 208.414062 196.78125 C 207.949219 199.363281 207.929688 201.597656 204.480469 202.128906 C 193.277344 203.863281 183.550781 204.246094 172.339844 202.175781 C 168.886719 201.539062 168.960938 199.375 168.605469 196.769531 C 168.585938 196.621094 168.703125 196.335938 168.71875 196.1875 C 168.789062 195.539062 169.078125 194.957031 169.28125 194.382812 C 170.0625 196.570312 170.0625 198.230469 172.992188 198.804688 C 183.972656 200.945312 193.4375 200.515625 204.410156 198.636719 C 206.949219 198.199219 207.097656 197.011719 208.148438 195.1875 C 208.164062 195.511719 208.328125 195.839844 208.328125 196.191406 Z M 208.328125 196.191406 " fill-opacity="0.42" fill-rule="nonzero"/><path fill="#ffb401" d="M 208.992188 196.445312 C 208.960938 196.304688 208.988281 195.984375 208.9375 195.855469 C 208.039062 193.59375 207.367188 191.164062 204.09375 191.710938 C 193.453125 193.492188 185.011719 194.242188 174.308594 192.125 C 171.011719 191.476562 170.367188 193.757812 169.367188 196.003906 C 169.3125 196.132812 169.320312 196.453125 169.292969 196.597656 C 169.164062 197.21875 169.257812 197.855469 169.296875 198.441406 C 170.628906 196.644531 171.191406 194.960938 174.070312 195.535156 C 184.851562 197.683594 194 196.988281 204.722656 195.070312 C 207.203125 194.625 207.703125 196.078125 209.042969 197.46875 C 208.996094 197.15625 209.070312 196.785156 208.992188 196.445312 Z M 208.992188 196.445312 " fill-opacity="0.6" fill-rule="nonzero"/><path fill="#ffffff" d="M 170.417969 199.472656 C 170.417969 199.472656 169.984375 193.058594 193.6875 194.671875 C 193.6875 194.671875 175.894531 192.714844 175.78125 192.714844 C 175.667969 192.714844 171.398438 192.800781 171.398438 192.800781 C 171.398438 192.800781 169.925781 195.992188 169.867188 196.65625 C 169.8125 197.316406 170.042969 199.503906 170.070312 199.644531 C 170.097656 199.789062 170.417969 199.472656 170.417969 199.472656 Z M 170.417969 199.472656 " fill-opacity="0.55" fill-rule="nonzero"/><path fill="#001447" d="M 187.480469 205 C 182.222656 205 177.230469 204.527344 172.082031 203.582031 C 167.5 203.050781 166.453125 197.578125 167.691406 194.9375 C 168.582031 192.878906 169.796875 190.0625 173.929688 190.863281 C 185.417969 193.28125 193.941406 191.949219 204.660156 190.589844 C 207.765625 190.539062 210.261719 194.238281 209.703125 197.71875 C 209.324219 200.027344 208.855469 202.898438 204.699219 203.539062 C 198.410156 204.515625 192.8125 205 187.480469 205 Z M 170.042969 196.699219 C 170.324219 198.945312 170.265625 200.476562 172.597656 200.777344 C 182.632812 202.617188 192.101562 202.601562 204.261719 200.71875 C 207.835938 200.667969 207.546875 193.617188 204.683594 193.445312 C 193.765625 194.910156 185.175781 196.105469 173.386719 193.664062 C 171.421875 193.082031 170.902344 194.691406 170.042969 196.699219 Z M 206.992188 196.800781 Z M 170.019531 196.753906 L 170.015625 196.765625 C 170.015625 196.765625 170.019531 196.757812 170.019531 196.753906 Z M 170.039062 196.742188 Z M 207.003906 196.53125 Z M 207.003906 196.53125 " fill-opacity="1" fill-rule="nonzero"/><path fill="#001447" d="M 199.453125 171.636719 C 199.453125 171.636719 202.738281 179.347656 185.4375 180.898438 C 184.976562 183.144531 202.738281 182.167969 202.738281 182.167969 C 202.738281 182.167969 207.410156 176.988281 207.527344 176.988281 C 207.644531 176.988281 207.527344 171.308594 207.527344 171.308594 Z M 199.453125 171.636719 " fill-opacity="0.29" fill-rule="nonzero"/><path fill="#001447" d="M 199.335938 182.605469 C 199.335938 182.605469 202.625 190.316406 185.320312 191.871094 C 184.863281 194.113281 202.625 193.136719 202.625 193.136719 C 202.625 193.136719 207.296875 187.957031 207.410156 187.957031 C 207.527344 187.957031 207.410156 182.28125 207.410156 182.28125 Z M 199.335938 182.605469 " fill-opacity="0.29" fill-rule="nonzero"/><path fill="#ffb401" d="M 133.28125 163.84375 C 132.828125 163.84375 132.386719 163.628906 132.109375 163.234375 C 131.65625 162.589844 131.808594 161.699219 132.457031 161.246094 L 144.078125 153.113281 C 144.726562 152.65625 145.617188 152.8125 146.070312 153.460938 C 146.523438 154.105469 146.367188 154.996094 145.722656 155.449219 L 134.101562 163.585938 C 133.851562 163.761719 133.5625 163.84375 133.28125 163.84375 Z M 133.28125 163.84375 " fill-opacity="1" fill-rule="nonzero"/><path fill="#ffb401" d="M 123.359375 148.320312 C 122.777344 148.320312 122.226562 147.960938 122.015625 147.382812 C 121.746094 146.640625 122.128906 145.820312 122.867188 145.550781 L 136.207031 140.691406 C 136.949219 140.421875 137.769531 140.804688 138.039062 141.542969 C 138.3125 142.28125 137.929688 143.101562 137.1875 143.371094 L 123.851562 148.230469 C 123.6875 148.289062 123.523438 148.320312 123.359375 148.320312 Z M 123.359375 148.320312 " fill-opacity="1" fill-rule="nonzero"/><path fill="#ffb401" d="M 117.804688 130.761719 C 117.070312 130.761719 116.449219 130.203125 116.382812 129.460938 C 116.3125 128.675781 116.894531 127.984375 117.679688 127.914062 L 131.820312 126.664062 C 132.609375 126.59375 133.304688 127.175781 133.371094 127.960938 C 133.441406 128.746094 132.859375 129.4375 132.074219 129.507812 L 117.933594 130.757812 C 117.890625 130.761719 117.847656 130.761719 117.804688 130.761719 Z M 117.804688 130.761719 " fill-opacity="1" fill-rule="nonzero"/><g clip-path="url(#b56b647e07)"><path fill="#ffb401" d="M 130.984375 114.816406 C 130.902344 114.816406 130.820312 114.808594 130.734375 114.792969 L 116.75 112.351562 C 115.972656 112.214844 115.453125 111.476562 115.589844 110.699219 C 115.722656 109.921875 116.464844 109.402344 117.246094 109.539062 L 131.230469 111.984375 C 132.007812 112.121094 132.527344 112.859375 132.390625 113.636719 C 132.269531 114.328125 131.667969 114.816406 130.984375 114.816406 Z M 130.984375 114.816406 " fill-opacity="1" fill-rule="nonzero"/></g><path fill="#ffb401" d="M 133.859375 100.371094 C 133.660156 100.371094 133.453125 100.324219 133.257812 100.234375 L 120.382812 94.265625 C 119.667969 93.933594 119.355469 93.082031 119.691406 92.367188 C 120.023438 91.652344 120.875 91.34375 121.589844 91.675781 L 134.464844 97.648438 C 135.179688 97.980469 135.492188 98.828125 135.160156 99.542969 C 134.917969 100.0625 134.398438 100.371094 133.859375 100.371094 Z M 133.859375 100.371094 " fill-opacity="1" fill-rule="nonzero"/><path fill="#ffb401" d="M 140.390625 87.160156 C 140.066406 87.160156 139.742188 87.050781 139.472656 86.824219 L 128.585938 77.734375 C 127.980469 77.226562 127.902344 76.328125 128.40625 75.722656 C 128.914062 75.121094 129.816406 75.039062 130.421875 75.546875 L 141.308594 84.636719 C 141.914062 85.144531 141.992188 86.042969 141.488281 86.648438 C 141.203125 86.984375 140.800781 87.15625 140.390625 87.15625 Z M 140.390625 87.160156 " fill-opacity="1" fill-rule="nonzero"/><path fill="#ffb401" d="M 150.125 76.085938 C 149.675781 76.085938 149.230469 75.875 148.953125 75.480469 L 140.796875 63.886719 C 140.34375 63.242188 140.5 62.351562 141.148438 61.898438 C 141.792969 61.445312 142.6875 61.601562 143.140625 62.246094 L 151.296875 73.839844 C 151.75 74.484375 151.59375 75.375 150.945312 75.828125 C 150.695312 76.003906 150.410156 76.085938 150.125 76.085938 Z M 150.125 76.085938 " fill-opacity="1" fill-rule="nonzero"/><path fill="#ffb401" d="M 162.398438 67.902344 C 161.816406 67.902344 161.265625 67.542969 161.054688 66.964844 L 156.183594 53.660156 C 155.914062 52.917969 156.296875 52.101562 157.035156 51.828125 C 157.777344 51.558594 158.601562 51.941406 158.871094 52.679688 L 163.742188 65.984375 C 164.011719 66.726562 163.632812 67.542969 162.890625 67.8125 C 162.726562 67.871094 162.5625 67.902344 162.398438 67.902344 Z M 162.398438 67.902344 " fill-opacity="1" fill-rule="nonzero"/><g clip-path="url(#5a42fc1233)"><path fill="#ffb401" d="M 179.585938 62.535156 C 178.917969 62.535156 178.320312 62.066406 178.183594 61.390625 L 175.359375 47.511719 C 175.203125 46.738281 175.703125 45.984375 176.476562 45.828125 C 177.253906 45.671875 178.007812 46.171875 178.164062 46.941406 L 180.988281 60.824219 C 181.144531 61.597656 180.644531 62.351562 179.871094 62.507812 C 179.773438 62.527344 179.679688 62.535156 179.585938 62.535156 Z M 179.585938 62.535156 " fill-opacity="1" fill-rule="nonzero"/></g><path fill="#ffb401" d="M 241.855469 163.84375 C 241.570312 163.84375 241.285156 163.757812 241.035156 163.582031 L 229.414062 155.445312 C 228.765625 154.992188 228.609375 154.101562 229.0625 153.457031 C 229.515625 152.8125 230.410156 152.65625 231.054688 153.109375 L 242.675781 161.246094 C 243.324219 161.699219 243.480469 162.589844 243.027344 163.234375 C 242.746094 163.628906 242.304688 163.839844 241.855469 163.839844 Z M 241.855469 163.84375 " fill-opacity="1" fill-rule="nonzero"/><path fill="#ffb401" d="M 251.773438 148.320312 C 251.609375 148.320312 251.445312 148.289062 251.28125 148.230469 L 237.945312 143.371094 C 237.203125 143.101562 236.824219 142.28125 237.09375 141.542969 C 237.363281 140.800781 238.1875 140.421875 238.929688 140.691406 L 252.265625 145.550781 C 253.007812 145.820312 253.386719 146.640625 253.117188 147.382812 C 252.90625 147.960938 252.355469 148.320312 251.773438 148.320312 Z M 251.773438 148.320312 " fill-opacity="1" fill-rule="nonzero"/><path fill="#ffb401" d="M 257.328125 130.761719 C 257.285156 130.761719 257.246094 130.761719 257.199219 130.757812 L 243.058594 129.507812 C 242.269531 129.4375 241.691406 128.742188 241.761719 127.960938 C 241.832031 127.175781 242.523438 126.59375 243.3125 126.664062 L 257.453125 127.914062 C 258.242188 127.984375 258.824219 128.679688 258.753906 129.460938 C 258.6875 130.203125 258.0625 130.761719 257.328125 130.761719 Z M 257.328125 130.761719 " fill-opacity="1" fill-rule="nonzero"/><g clip-path="url(#a6b91a08d9)"><path fill="#ffb401" d="M 244.148438 114.816406 C 243.46875 114.816406 242.863281 114.328125 242.742188 113.636719 C 242.605469 112.859375 243.125 112.121094 243.902344 111.984375 L 257.890625 109.539062 C 258.667969 109.402344 259.410156 109.921875 259.546875 110.699219 C 259.683594 111.476562 259.160156 112.214844 258.382812 112.351562 L 244.398438 114.792969 C 244.316406 114.808594 244.230469 114.816406 244.148438 114.816406 Z M 244.148438 114.816406 " fill-opacity="1" fill-rule="nonzero"/></g><path fill="#ffb401" d="M 241.273438 100.371094 C 240.734375 100.371094 240.21875 100.0625 239.976562 99.542969 C 239.640625 98.828125 239.953125 97.980469 240.667969 97.648438 L 253.542969 91.675781 C 254.261719 91.34375 255.109375 91.652344 255.445312 92.367188 C 255.777344 93.082031 255.464844 93.933594 254.75 94.265625 L 241.875 100.234375 C 241.679688 100.324219 241.476562 100.371094 241.273438 100.371094 Z M 241.273438 100.371094 " fill-opacity="1" fill-rule="nonzero"/><path fill="#ffb401" d="M 234.742188 87.160156 C 234.335938 87.160156 233.929688 86.984375 233.644531 86.648438 C 233.136719 86.046875 233.21875 85.144531 233.824219 84.640625 L 244.710938 75.546875 C 245.316406 75.039062 246.21875 75.121094 246.726562 75.726562 C 247.234375 76.328125 247.152344 77.230469 246.546875 77.734375 L 235.660156 86.828125 C 235.390625 87.050781 235.066406 87.160156 234.742188 87.160156 Z M 234.742188 87.160156 " fill-opacity="1" fill-rule="nonzero"/><path fill="#ffb401" d="M 225.007812 76.085938 C 224.722656 76.085938 224.4375 76 224.1875 75.824219 C 223.539062 75.375 223.382812 74.484375 223.835938 73.839844 L 231.992188 62.246094 C 232.445312 61.601562 233.339844 61.445312 233.984375 61.898438 C 234.632812 62.347656 234.789062 63.238281 234.335938 63.882812 L 226.179688 75.476562 C 225.902344 75.871094 225.457031 76.085938 225.007812 76.085938 Z M 225.007812 76.085938 " fill-opacity="1" fill-rule="nonzero"/><path fill="#ffb401" d="M 212.734375 67.902344 C 212.570312 67.902344 212.40625 67.871094 212.242188 67.8125 C 211.5 67.542969 211.121094 66.726562 211.390625 65.984375 L 216.261719 52.679688 C 216.535156 51.9375 217.355469 51.558594 218.097656 51.828125 C 218.839844 52.101562 219.21875 52.917969 218.949219 53.660156 L 214.078125 66.964844 C 213.867188 67.542969 213.316406 67.902344 212.734375 67.902344 Z M 212.734375 67.902344 " fill-opacity="1" fill-rule="nonzero"/><g clip-path="url(#6167db51f2)"><path fill="#ffb401" d="M 195.28125 62.628906 C 195.226562 62.628906 195.171875 62.625 195.117188 62.621094 C 194.332031 62.53125 193.769531 61.824219 193.859375 61.039062 L 195.484375 46.96875 C 195.574219 46.183594 196.285156 45.625 197.070312 45.714844 C 197.855469 45.804688 198.417969 46.511719 198.328125 47.296875 L 196.703125 61.367188 C 196.617188 62.09375 196 62.628906 195.28125 62.628906 Z M 195.28125 62.628906 " fill-opacity="1" fill-rule="nonzero"/></g></svg>